<svg width="80" height="80" viewBox="0 0 80 80" fill="none" xmlns="http://www.w3.org/2000/svg">
  <rect width="80" height="80" rx="16" fill="url(#gradient6)"/>
  <rect x="12" y="45" width="56" height="15" fill="white" opacity="0.9"/>
  <path d="M20 45 Q 20 38 25 38 Q 30 38 30 45" fill="#4CAF50"/>
  <path d="M28 45 Q 28 40 32 40 Q 36 40 36 45" fill="#66BB6A"/>
  <path d="M35 45 Q 35 38 40 38 Q 45 38 45 45" fill="#4CAF50"/>
  <path d="M43 45 Q 43 40 48 40 Q 52 40 52 45" fill="#66BB6A"/>
  <path d="M50 45 Q 50 38 55 38 Q 60 38 60 45" fill="#4CAF50"/>
  <circle cx="25" cy="42" r="1.5" fill="#81C784"/>
  <circle cx="40" cy="41" r="1.5" fill="#81C784"/>
  <circle cx="55" cy="42" r="1.5" fill="#81C784"/>
  <defs>
    <linearGradient id="gradient6" x1="0" y1="0" x2="80" y2="80">
      <stop offset="0%" stop-color="#C8102E"/>
      <stop offset="100%" stop-color="#A00020"/>
    </linearGradient>
  </defs>
</svg>
