<svg xmlns="http://www.w3.org/2000/svg" viewBox="0 0 80 80">
  <defs>
    <linearGradient id="repairGrad" x1="0%" y1="0%" x2="100%" y2="100%">
      <stop offset="0%" style="stop-color:#C8102E;stop-opacity:1" />
      <stop offset="100%" style="stop-color:#8B0000;stop-opacity:1" />
    </linearGradient>
  </defs>
  <rect width="80" height="80" rx="16" fill="url(#repairGrad)"/>
  <g fill="white">
    <!-- Wrench -->
    <path d="M 48 25 C 48 20 52 16 57 16 C 59 16 61 17 62 18 L 56 24 L 58 26 L 64 20 C 65 21 66 23 66 25 C 66 30 62 34 57 34 L 32 59 C 30 61 27 61 25 59 C 23 57 23 54 25 52 L 48 27 Z" fill="white"/>
    <!-- Screwdriver -->
    <rect x="20" y="30" width="5" height="28" rx="1" transform="rotate(45 22.5 44)"/>
    <rect x="18" y="50" width="9" height="6" rx="1" transform="rotate(45 22.5 53)"/>
  </g>
</svg>
